<mxfile host="app.diagrams.net" agent="Mozilla/5.0 (Windows NT 10.0; Win64; x64) AppleWebKit/537.36 (KHTML, like Gecko) Chrome/129.0.0.0 Safari/537.36" version="24.7.16">
  <diagram name="Trang-1" id="uxF3svlyaMLTP5FmWMqY">
    <mxGraphModel dx="521" dy="1083" grid="1" gridSize="10" guides="1" tooltips="1" connect="1" arrows="1" fold="1" page="1" pageScale="1" pageWidth="827" pageHeight="1169" math="0" shadow="0">
      <root>
        <mxCell id="0" />
        <mxCell id="1" parent="0" />
        <mxCell id="VdMOmE4zb1gzsC1R1lpb-1" value="Person" style="swimlane;childLayout=stackLayout;horizontal=1;startSize=50;horizontalStack=0;rounded=1;fontSize=14;fontStyle=0;strokeWidth=2;resizeParent=0;resizeLast=1;shadow=0;dashed=0;align=center;arcSize=4;whiteSpace=wrap;html=1;" vertex="1" parent="1">
          <mxGeometry x="150" y="340" width="180" height="140" as="geometry" />
        </mxCell>
        <mxCell id="VdMOmE4zb1gzsC1R1lpb-2" value="+EmployeeId&lt;div&gt;+EmployeeName&lt;/div&gt;&lt;div&gt;+DateofBirth&lt;/div&gt;&lt;div&gt;+address&lt;/div&gt;&lt;div&gt;+Phonenumber&lt;/div&gt;" style="align=left;strokeColor=none;fillColor=none;spacingLeft=4;fontSize=12;verticalAlign=top;resizable=0;rotatable=0;part=1;html=1;" vertex="1" parent="VdMOmE4zb1gzsC1R1lpb-1">
          <mxGeometry y="50" width="180" height="90" as="geometry" />
        </mxCell>
        <mxCell id="VdMOmE4zb1gzsC1R1lpb-7" value="Organization" style="swimlane;childLayout=stackLayout;horizontal=1;startSize=50;horizontalStack=0;rounded=1;fontSize=14;fontStyle=0;strokeWidth=2;resizeParent=0;resizeLast=1;shadow=0;dashed=0;align=center;arcSize=4;whiteSpace=wrap;html=1;" vertex="1" parent="1">
          <mxGeometry x="550" y="320" width="180" height="140" as="geometry" />
        </mxCell>
        <mxCell id="VdMOmE4zb1gzsC1R1lpb-8" value="+OrganizeId&lt;div&gt;+OrganizeName&lt;/div&gt;&lt;div&gt;+Address&lt;/div&gt;&lt;div&gt;+Phone Number&lt;/div&gt;&lt;div&gt;+Budget&lt;/div&gt;" style="align=left;strokeColor=none;fillColor=none;spacingLeft=4;fontSize=12;verticalAlign=top;resizable=0;rotatable=0;part=1;html=1;" vertex="1" parent="VdMOmE4zb1gzsC1R1lpb-7">
          <mxGeometry y="50" width="180" height="90" as="geometry" />
        </mxCell>
        <mxCell id="VdMOmE4zb1gzsC1R1lpb-14" value="Employment" style="swimlane;childLayout=stackLayout;horizontal=1;startSize=50;horizontalStack=0;rounded=1;fontSize=14;fontStyle=0;strokeWidth=2;resizeParent=0;resizeLast=1;shadow=0;dashed=0;align=center;arcSize=4;whiteSpace=wrap;html=1;" vertex="1" parent="1">
          <mxGeometry x="390" y="550" width="160" height="120" as="geometry" />
        </mxCell>
        <mxCell id="VdMOmE4zb1gzsC1R1lpb-15" value="+startdate&lt;div&gt;+enddate&lt;/div&gt;&lt;div&gt;+bonus&lt;/div&gt;" style="align=left;strokeColor=none;fillColor=none;spacingLeft=4;fontSize=12;verticalAlign=top;resizable=0;rotatable=0;part=1;html=1;" vertex="1" parent="VdMOmE4zb1gzsC1R1lpb-14">
          <mxGeometry y="50" width="160" height="70" as="geometry" />
        </mxCell>
        <mxCell id="VdMOmE4zb1gzsC1R1lpb-17" value="" style="edgeStyle=entityRelationEdgeStyle;fontSize=12;html=1;endArrow=ERoneToMany;startArrow=ERmandOne;rounded=0;entryX=0.5;entryY=0;entryDx=0;entryDy=0;exitX=0;exitY=0.5;exitDx=0;exitDy=0;" edge="1" parent="1" source="VdMOmE4zb1gzsC1R1lpb-8" target="VdMOmE4zb1gzsC1R1lpb-14">
          <mxGeometry width="100" height="100" relative="1" as="geometry">
            <mxPoint x="414" y="400" as="sourcePoint" />
            <mxPoint x="514" y="300" as="targetPoint" />
          </mxGeometry>
        </mxCell>
        <mxCell id="VdMOmE4zb1gzsC1R1lpb-18" value="" style="edgeStyle=entityRelationEdgeStyle;fontSize=12;html=1;endArrow=ERoneToMany;startArrow=ERmandOne;rounded=0;exitX=0.5;exitY=1;exitDx=0;exitDy=0;entryX=0;entryY=0.25;entryDx=0;entryDy=0;" edge="1" parent="1" source="VdMOmE4zb1gzsC1R1lpb-2" target="VdMOmE4zb1gzsC1R1lpb-14">
          <mxGeometry width="100" height="100" relative="1" as="geometry">
            <mxPoint x="330" y="530" as="sourcePoint" />
            <mxPoint x="430" y="430" as="targetPoint" />
            <Array as="points">
              <mxPoint x="280" y="680" />
            </Array>
          </mxGeometry>
        </mxCell>
        <mxCell id="VdMOmE4zb1gzsC1R1lpb-19" value="position" style="swimlane;childLayout=stackLayout;horizontal=1;startSize=50;horizontalStack=0;rounded=1;fontSize=14;fontStyle=0;strokeWidth=2;resizeParent=0;resizeLast=1;shadow=0;dashed=0;align=center;arcSize=4;whiteSpace=wrap;html=1;" vertex="1" parent="1">
          <mxGeometry x="750" y="550" width="160" height="120" as="geometry" />
        </mxCell>
        <mxCell id="VdMOmE4zb1gzsC1R1lpb-20" value="+Attribute1&#xa;+Attribute2&#xa;+Attribute3" style="align=left;strokeColor=none;fillColor=none;spacingLeft=4;fontSize=12;verticalAlign=top;resizable=0;rotatable=0;part=1;html=1;" vertex="1" parent="VdMOmE4zb1gzsC1R1lpb-19">
          <mxGeometry y="50" width="160" height="70" as="geometry" />
        </mxCell>
        <mxCell id="VdMOmE4zb1gzsC1R1lpb-21" value="" style="edgeStyle=entityRelationEdgeStyle;fontSize=12;html=1;endArrow=ERoneToMany;startArrow=ERmandOne;rounded=0;entryX=0.5;entryY=0;entryDx=0;entryDy=0;exitX=1.021;exitY=0.363;exitDx=0;exitDy=0;exitPerimeter=0;" edge="1" parent="1" source="VdMOmE4zb1gzsC1R1lpb-8" target="VdMOmE4zb1gzsC1R1lpb-19">
          <mxGeometry width="100" height="100" relative="1" as="geometry">
            <mxPoint x="945" y="340" as="sourcePoint" />
            <mxPoint x="835" y="475" as="targetPoint" />
          </mxGeometry>
        </mxCell>
        <mxCell id="VdMOmE4zb1gzsC1R1lpb-22" value="" style="edgeStyle=entityRelationEdgeStyle;fontSize=12;html=1;endArrow=ERoneToMany;startArrow=ERoneToMany;rounded=0;exitX=1;exitY=0.25;exitDx=0;exitDy=0;entryX=0;entryY=0.25;entryDx=0;entryDy=0;" edge="1" parent="1" source="VdMOmE4zb1gzsC1R1lpb-15" target="VdMOmE4zb1gzsC1R1lpb-20">
          <mxGeometry width="100" height="100" relative="1" as="geometry">
            <mxPoint x="720" y="620" as="sourcePoint" />
            <mxPoint x="820" y="520" as="targetPoint" />
            <Array as="points">
              <mxPoint x="680" y="590" />
            </Array>
          </mxGeometry>
        </mxCell>
      </root>
    </mxGraphModel>
  </diagram>
</mxfile>
